<svg xmlns="http://www.w3.org/2000/svg" viewBox="0 0 1280 800" width="1280" height="800" role="img">
<defs>
  <marker id="arrow" viewBox="0 0 10 10" refX="9" refY="5" markerWidth="6.5" markerHeight="6.5" orient="auto-start-reverse">
    <path d="M 0 0 L 10 5 L 0 10 z" fill="#9DC2DD"/>
  </marker>
  <marker id="arrowFlow" viewBox="0 0 10 10" refX="9" refY="5" markerWidth="6.5" markerHeight="6.5" orient="auto-start-reverse">
    <path d="M 0 0 L 10 5 L 0 10 z" fill="#2E9BD6"/>
  </marker>
  <marker id="arrowWarn" viewBox="0 0 10 10" refX="9" refY="5" markerWidth="6.5" markerHeight="6.5" orient="auto-start-reverse">
    <path d="M 0 0 L 10 5 L 0 10 z" fill="#D9822B"/>
  </marker>
  <pattern id="dots" width="26" height="26" patternUnits="userSpaceOnUse">
    <circle cx="1.5" cy="1.5" r="1.2" fill="#E3EFFA"/>
  </pattern>
</defs>
<style>
  /* 系统开了「减少动态效果」就整体静止 —— 不靠 JS，纯 CSS 媒体查询。
     注意所有动画都只改描边/颜色，不改透明度：内容任何时刻都必须完整可见。 */
  @media (prefers-reduced-motion: reduce) {
    .flow, .pulse, .blink { animation: none !important; }
  }
  .flow { stroke-dasharray: 9 11; animation: flowDash 1.6s linear infinite; }
  @keyframes flowDash { to { stroke-dashoffset: -20; } }
  .pulse rect, .pulse polygon { animation: pulseStroke 2.4s ease-in-out infinite; }
  @keyframes pulseStroke {
    0%, 100% { stroke-width: 2.6; }
    22%, 46% { stroke-width: 5.5; }
  }
  .blink { animation: blinkFill 2.4s ease-in-out infinite; }
  @keyframes blinkFill {
    0%, 100% { fill: #EAF4FC; }
    24%, 46% { fill: #FDF1E3; }
  }
</style>
<rect width="1280" height="800" fill="#F6FAFE"/>
<rect width="1280" height="800" fill="url(#dots)"/><text x="640" y="44" text-anchor="middle" font-family="Nunito, 'Segoe UI', system-ui, -apple-system, Helvetica, Arial, sans-serif" font-size="24.7" font-weight="700" fill="#0E1F38">Detecting oriented, dense and tiny targets in remote sensing images</text><rect x="48" y="108" width="412" height="304" rx="12" fill="#FFFFFF" stroke="#C7DFF1" stroke-width="1.6" opacity="1"/><defs><clipPath id="clip20"><rect x="56" y="116" width="396" height="288" rx="8"/></clipPath></defs><g clip-path="url(#clip20)">
      <rect x="56" y="116" width="396" height="288" fill="#2C6C8C"/>
      <path d="M 56 236.95999999999998 Q 174.8 173.6, 285.67999999999995 213.92000000000002 T 452 190.88 L 452 116 L 56 116 Z" fill="#5D7A52"/>
      <path d="M 56 352.15999999999997 Q 214.4 288.79999999999995, 341.12 340.64 T 452 294.56 L 452 404 L 56 404 Z" fill="#4E6B47"/>
      <path d="M 119.36 294.56 Q 230.24 260, 325.28000000000003 288.79999999999995" fill="none" stroke="#1F5674" stroke-width="4" opacity="0.8"/></g><rect x="56" y="116" width="396" height="288" rx="8" fill="none" stroke="#C7DFF1" stroke-width="1.4"/><rect x="123.1" y="304.3" width="40" height="15" rx="3" fill="#E8EFF5" opacity="0.9" transform="rotate(-34 143.1 311.8)"/><g class="pulse" style="animation-delay:0s"><polygon points="114.0,315.2 157.1,286.1 172.2,308.5 129.1,337.6" fill="none" stroke="#D9822B" stroke-width="2.6"/></g><rect x="169.7" y="288.1" width="34" height="13" rx="3" fill="#E8EFF5" opacity="0.9" transform="rotate(26 186.7 294.6)"/><g class="pulse" style="animation-delay:0.6s"><polygon points="171.5,273.2 212.8,293.4 201.9,315.9 160.5,295.7" fill="none" stroke="#D9822B" stroke-width="2.6"/></g><rect x="223.2" y="317.4" width="30" height="12" rx="3" fill="#E8EFF5" opacity="0.9" transform="rotate(-12 238.2 323.4)"/><g class="pulse" style="animation-delay:1.2s"><polygon points="215.1,316.0 256.2,307.3 261.2,330.7 220.1,339.5" fill="none" stroke="#D9822B" stroke-width="2.6"/></g><rect x="267.7" y="293.3" width="36" height="14" rx="3" fill="#E8EFF5" opacity="0.9" transform="rotate(42 285.7 300.3)"/><g class="pulse" style="animation-delay:1.7999999999999998s"><polygon points="276.5,274.6 312.2,306.7 294.8,326.0 259.1,293.9" fill="none" stroke="#D9822B" stroke-width="2.6"/></g><rect x="161.8" y="340.9" width="26" height="11" rx="3" fill="#E8EFF5" opacity="0.9" transform="rotate(8 174.8 346.4)"/><rect x="314.3" y="335.6" width="22" height="10" rx="3" fill="#E8EFF5" opacity="0.9" transform="rotate(-28 325.3 340.6)"/><path d="M 301.52 190.88 l 34 -12 l 6 6 l -34 12 z" fill="#EDF3F8" opacity="0.95"/><path d="M 317.36 179.36 l -6 -16 l 8 -2 l 8 16 z" fill="#E3EBF2" opacity="0.95"/><polygon points="279.9,182.3 338.9,163.2 346.9,187.9 287.9,207.1" fill="none" stroke="#D9822B" stroke-width="2.6"/><rect x="119.36" y="283.03999999999996" width="198" height="80.64000000000001" rx="8" fill="none" stroke="#D9822B" stroke-width="2" stroke-dasharray="7 5"/><rect x="119.36" y="369.67999999999995" width="140.41" height="22.3" rx="6" fill="#D9822B" opacity="0.14"/><text x="189.565" y="384.97999999999996" text-anchor="middle" font-family="Nunito, 'Segoe UI', system-ui, -apple-system, Helvetica, Arial, sans-serif" font-size="14.3" font-weight="700" fill="#D9822B">dense &amp; rotated</text><rect x="285.67999999999995" y="156.32" width="92" height="56" rx="8" fill="none" stroke="#D9822B" stroke-width="2" stroke-dasharray="7 5"/><rect x="285.67999999999995" y="132.01999999999998" width="123.822" height="22.3" rx="6" fill="#D9822B" opacity="0.14"/><text x="347.59099999999995" y="147.32" text-anchor="middle" font-family="Nunito, 'Segoe UI', system-ui, -apple-system, Helvetica, Arial, sans-serif" font-size="14.3" font-weight="700" fill="#D9822B">tiny vs large</text><text x="254" y="444" text-anchor="middle" font-family="Nunito, 'Segoe UI', system-ui, -apple-system, Helvetica, Arial, sans-serif" font-size="23.400000000000002" font-weight="700" fill="#0E1F38">Satellite / aerial image</text><text x="254" y="466" text-anchor="middle" font-family="Nunito, 'Segoe UI', system-ui, -apple-system, Helvetica, Arial, sans-serif" font-size="15.600000000000001" font-weight="400" fill="#55688A">oriented boxes mark every target</text><rect x="508" y="116" width="264" height="88" rx="12" fill="#FFFFFF" stroke="#C7DFF1" stroke-width="1.6" opacity="1"/><text x="640" y="168.892" text-anchor="middle" font-family="Nunito, 'Segoe UI', system-ui, -apple-system, Helvetica, Arial, sans-serif" font-size="24.7" font-weight="700" fill="#0E1F38">Backbone</text><line x1="476" y1="260" x2="494" y2="160" stroke="#9DC2DD" stroke-width="2.2" stroke-linecap="round" marker-end="url(#arrow)"/><rect x="518" y="248" width="244" height="40" rx="8" fill="#EAF4FC" stroke="#2E9BD6" stroke-width="1.6" opacity="1"/><text x="640" y="273.616" text-anchor="middle" font-family="Nunito, 'Segoe UI', system-ui, -apple-system, Helvetica, Arial, sans-serif" font-size="15.600000000000001" font-weight="700" fill="#0E1F38">P3  fine</text><rect x="542" y="296" width="196" height="40" rx="8" fill="#EAF4FC" stroke="#2E9BD6" stroke-width="1.6" opacity="1"/><text x="640" y="321.616" text-anchor="middle" font-family="Nunito, 'Segoe UI', system-ui, -apple-system, Helvetica, Arial, sans-serif" font-size="15.600000000000001" font-weight="700" fill="#0E1F38">P4</text><rect x="566" y="344" width="148" height="40" rx="8" fill="#EAF4FC" stroke="#2E9BD6" stroke-width="1.6" opacity="1"/><text x="640" y="369.616" text-anchor="middle" font-family="Nunito, 'Segoe UI', system-ui, -apple-system, Helvetica, Arial, sans-serif" font-size="15.600000000000001" font-weight="700" fill="#0E1F38">P5  coarse</text><text x="640" y="232" text-anchor="middle" font-family="Nunito, 'Segoe UI', system-ui, -apple-system, Helvetica, Arial, sans-serif" font-size="19.5" font-weight="700" fill="#0E1F38">Multi-scale features</text><line x1="640" y1="218" x2="640" y2="242" stroke="#9DC2DD" stroke-width="2.2" stroke-linecap="round" marker-end="url(#arrow)"/><rect x="508" y="408" width="264" height="84" rx="12" fill="#FFFFFF" stroke="#C7DFF1" stroke-width="1.6" opacity="1"/><text x="640" y="443.956" text-anchor="middle" font-family="Nunito, 'Segoe UI', system-ui, -apple-system, Helvetica, Arial, sans-serif" font-size="22.1" font-weight="700" fill="#0E1F38">Detection head</text><rect x="524" y="448" width="110" height="30" rx="8" fill="#FDF1E3" stroke="#D9822B" stroke-width="1.6" opacity="1"/><text x="579" y="468.616" text-anchor="middle" font-family="Nunito, 'Segoe UI', system-ui, -apple-system, Helvetica, Arial, sans-serif" font-size="15.600000000000001" font-weight="700" fill="#0E1F38">class</text><rect x="646" y="448" width="110" height="30" rx="8" fill="#FDF1E3" stroke="#D9822B" stroke-width="1.6" opacity="1"/><text x="701" y="468.04" text-anchor="middle" font-family="Nunito, 'Segoe UI', system-ui, -apple-system, Helvetica, Arial, sans-serif" font-size="14" font-weight="700" fill="#0E1F38">angle + box</text><line x1="640" y1="384" x2="640" y2="400" stroke="#9DC2DD" stroke-width="2.2" stroke-linecap="round" marker-end="url(#arrow)"/><rect x="856" y="116" width="368" height="288" rx="12" fill="#FFFFFF" stroke="#C7DFF1" stroke-width="1.6" opacity="1"/><text x="1040" y="158.424" text-anchor="middle" font-family="Nunito, 'Segoe UI', system-ui, -apple-system, Helvetica, Arial, sans-serif" font-size="23.400000000000002" font-weight="700" fill="#0E1F38">Oriented detections</text><g class="pulse" style="animation-delay:0s"><polygon points="874.3,186.9 912.7,175.8 917.7,193.1 879.3,204.2" fill="none" stroke="#D9822B" stroke-width="2.4"/></g><text x="948" y="188" text-anchor="start" font-family="Nunito, 'Segoe UI', system-ui, -apple-system, Helvetica, Arial, sans-serif" font-size="19.5" font-weight="700" fill="#0E1F38">ship</text><text x="948" y="210" text-anchor="start" font-family="Nunito, 'Segoe UI', system-ui, -apple-system, Helvetica, Arial, sans-serif" font-size="14.3" font-weight="400" fill="#55688A">θ = −34°   32 × 12 px</text><text x="1200" y="196" text-anchor="end" font-family="Nunito, 'Segoe UI', system-ui, -apple-system, Helvetica, Arial, sans-serif" font-size="14.3" font-weight="400" fill="#55688A">conf 0.9</text><g class="pulse" style="animation-delay:0.5s"><polygon points="875.3,234.8 915.1,231.3 916.7,249.2 876.9,252.7" fill="none" stroke="#D9822B" stroke-width="2.4"/></g><text x="948" y="240" text-anchor="start" font-family="Nunito, 'Segoe UI', system-ui, -apple-system, Helvetica, Arial, sans-serif" font-size="19.5" font-weight="700" fill="#0E1F38">ship</text><text x="948" y="262" text-anchor="start" font-family="Nunito, 'Segoe UI', system-ui, -apple-system, Helvetica, Arial, sans-serif" font-size="14.3" font-weight="400" fill="#55688A">θ = 26°   28 × 11 px</text><text x="1200" y="248" text-anchor="end" font-family="Nunito, 'Segoe UI', system-ui, -apple-system, Helvetica, Arial, sans-serif" font-size="14.3" font-weight="400" fill="#55688A">conf 0.9</text><g class="pulse" style="animation-delay:1s"><polygon points="877.1,283.0 916.8,287.1 914.9,305.0 875.2,300.9" fill="none" stroke="#D9822B" stroke-width="2.4"/></g><text x="948" y="292" text-anchor="start" font-family="Nunito, 'Segoe UI', system-ui, -apple-system, Helvetica, Arial, sans-serif" font-size="19.5" font-weight="700" fill="#0E1F38">aircraft</text><text x="948" y="314" text-anchor="start" font-family="Nunito, 'Segoe UI', system-ui, -apple-system, Helvetica, Arial, sans-serif" font-size="14.3" font-weight="400" fill="#55688A">θ = −18°   62 × 26 px</text><text x="1200" y="300" text-anchor="end" font-family="Nunito, 'Segoe UI', system-ui, -apple-system, Helvetica, Arial, sans-serif" font-size="14.3" font-weight="400" fill="#55688A">conf 0.9</text><g class="pulse" style="animation-delay:1.5s"><polygon points="879.5,331.5 917.8,343.2 912.5,360.5 874.2,348.8" fill="none" stroke="#D9822B" stroke-width="2.4"/></g><text x="948" y="344" text-anchor="start" font-family="Nunito, 'Segoe UI', system-ui, -apple-system, Helvetica, Arial, sans-serif" font-size="19.5" font-weight="700" fill="#0E1F38">harbour</text><text x="948" y="366" text-anchor="start" font-family="Nunito, 'Segoe UI', system-ui, -apple-system, Helvetica, Arial, sans-serif" font-size="14.3" font-weight="400" fill="#55688A">θ = 8°   120 × 48 px</text><text x="1200" y="352" text-anchor="end" font-family="Nunito, 'Segoe UI', system-ui, -apple-system, Helvetica, Arial, sans-serif" font-size="14.3" font-weight="400" fill="#55688A">conf 0.9</text><line x1="792" y1="450" x2="842" y2="266" stroke="#9DC2DD" stroke-width="2" stroke-linecap="round" marker-end="url(#arrow)"/><rect x="56" y="508" width="560" height="236" rx="12" fill="#FFFFFF" stroke="#C7DFF1" stroke-width="1.6" opacity="1"/><text x="336" y="546.424" text-anchor="middle" font-family="Nunito, 'Segoe UI', system-ui, -apple-system, Helvetica, Arial, sans-serif" font-size="23.400000000000002" font-weight="700" fill="#0E1F38">Axis-aligned boxes</text><rect x="664" y="508" width="560" height="236" rx="12" fill="#FFFFFF" stroke="#C7DFF1" stroke-width="1.6" opacity="1"/><text x="944" y="546.424" text-anchor="middle" font-family="Nunito, 'Segoe UI', system-ui, -apple-system, Helvetica, Arial, sans-serif" font-size="23.400000000000002" font-weight="700" fill="#0E1F38">Oriented boxes</text><defs><clipPath id="clip21"><rect x="90" y="566" width="492" height="100" rx="8"/></clipPath></defs><g clip-path="url(#clip21)">
      <rect x="90" y="566" width="492" height="100" fill="#2C6C8C"/>
      <path d="M 90 608 Q 237.6 586, 375.35999999999996 600 T 582 592 L 582 566 L 90 566 Z" fill="#5D7A52"/>
      <path d="M 90 648 Q 286.8 626, 444.24 644 T 582 628 L 582 666 L 90 666 Z" fill="#4E6B47"/>
      <path d="M 168.72 628 Q 306.48 616, 424.56 626" fill="none" stroke="#1F5674" stroke-width="4" opacity="0.8"/></g><rect x="90" y="566" width="492" height="100" rx="8" fill="none" stroke="#C7DFF1" stroke-width="1.4"/><rect x="205.6" y="614.0" width="64" height="24" rx="4" fill="#E8EFF5" opacity="0.92" transform="rotate(-32 237.6 626.0)"/><rect x="276.5" y="623.0" width="60" height="22" rx="4" fill="#E8EFF5" opacity="0.92" transform="rotate(-32 306.5 634.0)"/><rect x="214.03999999999996" y="593" width="116" height="74" fill="none" stroke="#55688A" stroke-width="2.4"/><rect x="361.04" y="586" width="68" height="60" fill="none" stroke="#55688A" stroke-width="2.4" stroke-dasharray="6 5"/><path d="M 387.84000000000003 608.8 l 14.4 14.4 M 402.24 608.8 l -14.4 14.4" fill="none" stroke="#C9503F" stroke-width="3.06" stroke-linecap="round"/><text x="336" y="688" text-anchor="middle" font-family="Nunito, 'Segoe UI', system-ui, -apple-system, Helvetica, Arial, sans-serif" font-size="15.600000000000001" font-weight="400" fill="#55688A">overlap · loose · one target missed</text><text x="336" y="716" text-anchor="middle" font-family="Nunito, 'Segoe UI', system-ui, -apple-system, Helvetica, Arial, sans-serif" font-size="15.600000000000001" font-weight="700" fill="#C9503F">rotation is ignored</text><defs><clipPath id="clip22"><rect x="698" y="566" width="492" height="100" rx="8"/></clipPath></defs><g clip-path="url(#clip22)">
      <rect x="698" y="566" width="492" height="100" fill="#2C6C8C"/>
      <path d="M 698 608 Q 845.6 586, 983.3599999999999 600 T 1190 592 L 1190 566 L 698 566 Z" fill="#5D7A52"/>
      <path d="M 698 648 Q 894.8 626, 1052.24 644 T 1190 628 L 1190 666 L 698 666 Z" fill="#4E6B47"/>
      <path d="M 776.72 628 Q 914.48 616, 1032.56 626" fill="none" stroke="#1F5674" stroke-width="4" opacity="0.8"/></g><rect x="698" y="566" width="492" height="100" rx="8" fill="none" stroke="#C7DFF1" stroke-width="1.4"/><rect x="813.6" y="614.0" width="64" height="24" rx="4" fill="#E8EFF5" opacity="0.92" transform="rotate(-32 845.6 626.0)"/><rect x="884.5" y="623.0" width="60" height="22" rx="4" fill="#E8EFF5" opacity="0.92" transform="rotate(-32 914.5 634.0)"/><polygon points="802.5,630.6 868.6,589.2 888.7,621.4 822.6,662.8" fill="none" stroke="#2F9E6B" stroke-width="2.6"/><polygon points="873.6,638.3 936.3,599.1 955.4,629.7 892.6,668.9" fill="none" stroke="#2F9E6B" stroke-width="2.6"/><path d="M 1043.24 608 l 6.3 7.2 l 11.700000000000001 -14.4" fill="none" stroke="#2F9E6B" stroke-width="3.06" stroke-linecap="round" stroke-linejoin="round"/><text x="944" y="688" text-anchor="middle" font-family="Nunito, 'Segoe UI', system-ui, -apple-system, Helvetica, Arial, sans-serif" font-size="15.600000000000001" font-weight="400" fill="#55688A">tight · separated · orientations kept</text><text x="944" y="716" text-anchor="middle" font-family="Nunito, 'Segoe UI', system-ui, -apple-system, Helvetica, Arial, sans-serif" font-size="15.600000000000001" font-weight="700" fill="#2F9E6B">this is what the lab targets</text>
</svg>
